<?xml version="1.0" encoding="utf-8"?>
<!-- Generator: Adobe Illustrator 19.2.1, SVG Export Plug-In . SVG Version: 6.00 Build 0)  -->
<svg version="1.1" id="Capa_1" xmlns="http://www.w3.org/2000/svg" xmlns:xlink="http://www.w3.org/1999/xlink" x="0px" y="0px"
	 width="238.5px" height="49px" viewBox="0 0 238.5 49" enable-background="new 0 0 238.5 49" xml:space="preserve">
<g>
	<g>
		<path fill="#C01818" d="M54.324,22.725l6.906,5.89c1.302,1.234,2.109,2.997,2.109,4.941c0,3.723-2.981,6.743-6.666,6.743
			l-4.724,0.016H37.461l1.478-6.468l10.901,0.019c1.181,0,2.138-0.965,2.138-2.156c0-0.738-0.362-1.388-0.924-1.779l-6.087-4.486
			c-1.62-1.229-2.668-3.198-2.668-5.404c0-3.735,2.984-6.753,6.663-6.753l15.755-0.011l-1.291,5.697h-7.639
			c-1.177,0-2.133,0.963-2.133,2.152c0,0.631,0.26,1.198,0.683,1.593L54.324,22.725z"/>
		<path fill="#C01818" d="M80.301,34.687h0.028c-1.179,0-2.152-0.963-2.133-2.158c0-0.252,0.06-0.446,0.118-0.637l2.92-12.958h4.868
			l1.292-5.659h-4.867l1.634-7.074h-9.331l-1.623,7.075h-5.094l-1.302,5.657h5.108l-3.764,16.473
			c-0.06,0.285-0.088,0.532-0.088,0.878c0,2.227,1.79,4.048,4.004,4.048l0,0l8.043-0.035l1.297-5.637
			C81.414,34.662,80.713,34.687,80.301,34.687"/>
		<path fill="#C01818" d="M183.062,34.687h0.021c-1.179,0-2.147-0.963-2.127-2.158c0-0.252,0.055-0.446,0.109-0.637l2.926-12.958
			h4.866l1.291-5.659h-4.859l1.615-7.074h-9.309l-1.639,7.075h-5.082l-1.302,5.657h5.109l-3.767,16.473
			c-0.063,0.285-0.098,0.532-0.098,0.878c0.005,2.227,1.791,4.048,4.001,4.048h0.007l8.053-0.035l1.288-5.637
			C184.164,34.662,183.48,34.687,183.062,34.687"/>
		<path fill="#C01818" d="M116.269,40.285c0.611-0.26,1.035-0.794,1.193-1.459l0.052-0.216l-0.027,0.05l4.522-19.737h-3.732
			l1.28-5.652h3.737l0.416-1.839l0.094-0.373c0.822-2.792,3.375-4.828,6.399-4.828l0.014-0.019h8.854l-1.033,4.541l-3.148-0.009
			c-1.012,0-1.84,0.71-2.076,1.654v-0.036l-0.217,0.908h4.863l-1.274,5.674h-4.877l-4.022,17.701
			c-0.426,2.083-2.244,3.648-4.434,3.648L116.269,40.285z"/>
		<path fill="#C01818" d="M98.677,33.995l-0.042,0.02c-0.538,0.361-1.188,0.565-1.88,0.565c-1.917,0-3.469-1.566-3.469-3.507
			c0-1.939,1.552-3.515,3.469-3.515l6.575,0.024C102.777,30.345,101.04,32.676,98.677,33.995 M115.036,16.778
			c0-1.939-1.557-3.503-3.468-3.503H90.795l-1.269,5.621h14.342c0.598,0,1.083,0.475,1.083,1.072c0,0.082-0.005,0.159-0.025,0.238
			h-0.013l-0.571,2.484H94.288c-5.152,0-9.331,4.236-9.331,9.452c0,0.077,0,0.162,0.005,0.241c0,0,0.003,0.268,0.009,0.441
			c0.142,4.866,4.51,8.24,9.268,8.24c0.598,0,1.083-0.044,1.757-0.16c1.912-0.342,3.326-0.888,4.626-1.91
			c0.631,0.798,1.621,1.291,2.707,1.291h8.779c-0.956-0.622-1.582-1.73-1.582-2.966c0-0.296,0.031-0.584,0.096-0.864l4.327-18.933
			v0.027C115.005,17.302,115.036,17.042,115.036,16.778"/>
		<path fill="#C01818" d="M29.548,20.214l-0.584,2.515H20.81l0.457-1.919c0.135-1.052,1.013-1.861,2.084-1.881l5.152,0.006
			c0.589,0,1.062,0.48,1.062,1.083C29.565,20.085,29.565,20.147,29.548,20.214 M36.187,13.277h-0.041H17.36l-0.069-0.033
			c-2.117,0-3.907,1.475-4.393,3.476L8.43,36.073c-0.053,0.241-0.069,0.469-0.069,0.724c0,1.941,1.558,3.512,3.474,3.512h22.522
			l1.472-6.491H20.945l0.03,0.011c-1.184,0-2.144-0.966-2.144-2.157c0-0.184,0.035-0.364,0.071-0.533l-0.011,0.019l0.724-3.325
			h17.603l2.386-10.403c0.033-0.214,0.05-0.43,0.05-0.649C39.655,14.849,38.106,13.277,36.187,13.277"/>
		<path fill="#C01818" d="M201.43,33.998l-0.036,0.017c-0.548,0.361-1.192,0.565-1.89,0.565c-1.913,0-3.455-1.566-3.455-3.507
			c0-1.942,1.543-3.515,3.455-3.515l6.579,0.02C205.532,30.342,203.794,32.671,201.43,33.998 M214.33,13.271h-20.783l-1.273,5.626
			h14.353c0.598,0,1.08,0.477,1.08,1.072c0,0.084-0.006,0.159-0.023,0.242l-0.016-0.005l-0.56,2.484h-10.058
			c-5.149,0-9.33,4.239-9.33,9.452v0.243c0,0,0.01,0.269,0.01,0.442c0.139,4.863,4.513,8.24,9.262,8.24
			c0.601,0,1.088-0.047,1.763-0.163c1.915-0.342,3.317-0.888,4.63-1.91c0.633,0.801,1.621,1.299,2.704,1.299h8.782
			c-0.962-0.63-1.592-1.738-1.592-2.974c0-0.293,0.035-0.584,0.105-0.864l4.323-18.932v0.025c0.055-0.247,0.09-0.505,0.09-0.771
			C217.794,14.835,216.237,13.271,214.33,13.271"/>
		<path fill="#C01818" d="M156.477,20.234l-0.575,2.519h-8.155l0.458-1.919c0.124-1.047,1.009-1.867,2.077-1.884l5.15,0.003
			c0.589,0,1.067,0.487,1.067,1.083C156.499,20.104,156.493,20.17,156.477,20.234 M163.125,13.291h-0.046h-18.784l-0.066-0.03
			c-2.131,0-3.908,1.478-4.405,3.472l-4.464,19.363c-0.055,0.244-0.066,0.466-0.066,0.718c0,1.944,1.554,3.516,3.465,3.516h22.527
			l1.478-6.495h-14.889l0.028,0.011c-1.184,0-2.133-0.962-2.133-2.152c0-0.189,0.02-0.368,0.065-0.538l-0.025,0.023l0.738-3.336
			h17.609l2.372-10.406c0.041-0.205,0.062-0.416,0.062-0.635C166.591,14.863,165.042,13.291,163.125,13.291"/>
	</g>
	<g>
		<path fill="#C01818" d="M224.435,17.527h0.674l1.102,1.838h0.801l-1.206-1.892c0.653-0.069,1.117-0.393,1.117-1.168
			c0-0.877-0.518-1.237-1.566-1.237h-1.62v4.297h0.697V17.527z M224.435,16.927v-1.256h0.856c0.422,0,0.933,0.063,0.933,0.579
			c0,0.625-0.472,0.677-0.992,0.677H224.435z M229,17.143c0-2.331-1.76-3.882-3.789-3.882c-2.064,0-3.817,1.55-3.817,3.882
			c0,2.21,1.585,3.88,3.817,3.88C227.24,21.023,229,19.479,229,17.143 M228.172,17.143c0,1.897-1.313,3.203-2.961,3.203
			c-1.851,0-2.992-1.44-2.992-3.203c0-1.883,1.302-3.203,2.992-3.203C226.859,13.939,228.172,15.26,228.172,17.143"/>
	</g>
</g>
</svg>
