<svg xmlns="http://www.w3.org/2000/svg" width="155" height="30" viewBox="17 27 155 34" class="Header__Logo"><g fill="#FFF" fill-rule="evenodd" data-darkreader-inline-fill="" style="--darkreader-inline-fill: #222426;"><path d="M35.6 46.8V30.3h3.3c1.7 0 3 .4 3.9 1.2.8.8 1.3 2 1.3 3.6s-.4 2.8-1.3 3.6c-.8.9-1.9 1.3-3.4 1.3h-.7l-.1 6.8h-3zm3-9.3h.4c.7 0 1.2-.2 1.5-.6.4-.4.6-1 .6-1.7 0-.8-.2-1.4-.5-1.8-.4-.4-.9-.5-1.6-.5h-.4v4.6zm26.6 9L63.5 48 62 46.3c-.3.2-.7.4-1.1.5-.4.1-.9.2-1.4.2-1.8 0-3.2-.8-4.2-2.3-.9-1.5-1.4-3.6-1.4-6.4 0-2.5.5-4.5 1.5-6s2.3-2.2 4.1-2.2c1.8 0 3.1.7 4.1 2.3 1 1.5 1.5 3.6 1.5 6.4 0 1.3-.1 2.5-.4 3.5-.2.9-.6 1.7-1.1 2.3l1.6 1.9zm-5.2-6l1.5 1.7c.1-.4.2-1 .3-1.5.1-.6.1-1.3.1-2.1 0-1.8-.2-3.1-.6-4-.4-.9-1-1.4-1.8-1.4-.9 0-1.5.5-1.9 1.4-.4.9-.6 2.4-.6 4.3 0 1.6.2 2.9.6 3.8.5.8 1.1 1.3 1.8 1.3.1 0 .2 0 .3-.1h.2L58.3 42l1.7-1.5zm16.5-10.2v10.4c0 1.3 0 2.2-.1 2.7s-.2 1-.4 1.3c-.4.8-.9 1.4-1.7 1.8-.7.3-1.6.5-2.8.5-1.1 0-2.1-.2-2.8-.5-.8-.4-1.3-1-1.7-1.8-.2-.4-.3-.8-.4-1.3 0-.6-.1-1.5-.1-2.7V30.3h3.2v10.6c0 1.4.1 2.3.4 2.7.3.3.7.5 1.4.5s1.2-.2 1.4-.6c.3-.4.4-1.2.4-2.6V30.3h3.2zM78.6 46.8V30.3h6.7v3.1h-3.7v3.3h3.3v3h-3.3v3.9h3.7v3.2zM89.4 46.8V33.4H87v-3.1h8.1v3.1h-2.5v13.4zM96.5 46.8V30.3h6.7v3.1h-3.7v3.3h3.3v3h-3.3v3.9h3.7v3.2zM111.5 46.8l-1.3-3.3-.3-1.2c-.1-.4-.2-.8-.3-1.3-.1.5-.2.9-.3 1.3-.1.5-.2.8-.3 1.2l-1.1 3.3h-3.6l3.7-8.3-3.4-8.2h3.4l1.2 3.5c0 .2.1.4.2.7.1.4.2.8.3 1.3.1-.5.1-.8.2-1.2.1-.3.2-.6.3-.8l1.2-3.5h3.3l-3.4 8.2 3.6 8.3h-3.4zm4.4 0V30.3h3.3c1.8 0 3.1.4 3.9 1.2.9.8 1.3 2 1.3 3.6s-.4 2.8-1.2 3.6c-.9.9-2 1.3-3.5 1.3h-.7v6.8h-3.1zm3.1-9.3H119.3c.7 0 1.2-.2 1.6-.6.3-.4.5-1 .5-1.7 0-.8-.2-1.4-.5-1.8-.3-.4-.9-.5-1.6-.5h-.2-.1v4.6zm6.6 9.3V30.3h3.3c1.8 0 3.1.4 4 1.1.8.8 1.2 1.9 1.2 3.6 0 1.1-.2 2.1-.6 2.8-.5.7-1.1 1.2-1.9 1.5l3 7.5h-3.3l-2.6-6.8v6.8h-3.1zm3.1-9.3H129c.7 0 1.2-.2 1.6-.6.3-.4.5-1 .5-1.8s-.1-1.3-.5-1.7c-.3-.4-.8-.5-1.5-.5h-.3-.1v4.6zM136 46.8V30.3h6.7v3.1h-3.6v3.3h3.3v3h-3.3v3.9h3.6v3.2zM144.6 46.3v-3.5c.4.4.8.7 1.2.8.4.2.8.3 1.2.3.5 0 1-.1 1.3-.4.3-.3.4-.7.4-1.2 0-.7-.4-1.3-1.2-2.1-.3-.2-.4-.3-.5-.4-1-1-1.7-1.8-2.1-2.5-.3-.7-.5-1.5-.5-2.4 0-1.5.4-2.6 1.2-3.5.7-.9 1.8-1.3 3-1.3.5 0 .9.1 1.3.2.5.1.9.3 1.4.6v2.9c-.6-.3-1-.4-1.3-.6-.3-.1-.6-.1-.8-.1-.5 0-.9.1-1.2.4-.3.3-.4.7-.4 1.2 0 .4.1.8.3 1.2.3.4.8.9 1.6 1.6 1 1 1.7 1.8 2 2.4.3.6.5 1.4.5 2.3 0 1.5-.4 2.7-1.2 3.5-.9.9-2 1.3-3.4 1.3-.5 0-1 0-1.5-.2-.4-.1-.9-.3-1.3-.5m8.4 0v-3.5c.4.4.8.7 1.2.8.4.2.8.3 1.2.3.5 0 1-.1 1.3-.4.3-.3.4-.7.4-1.2 0-.7-.4-1.3-1.2-2.1-.3-.2-.4-.3-.5-.4-1-1-1.7-1.8-2.1-2.5-.3-.7-.5-1.5-.5-2.4 0-1.5.4-2.6 1.2-3.5.7-.9 1.8-1.3 3-1.3.5 0 .9.1 1.3.2.5.1.9.3 1.4.6v2.9c-.6-.3-1-.4-1.3-.6-.3-.1-.6-.1-.8-.1-.5 0-.9.1-1.2.4-.3.3-.4.7-.4 1.2 0 .4.1.8.3 1.2.3.4.8.9 1.6 1.6 1 1 1.7 1.8 2 2.4.3.6.5 1.4.5 2.3 0 1.5-.4 2.7-1.2 3.5-.9.9-2 1.3-3.4 1.3-.5 0-1 0-1.5-.2-.4-.1-.9-.3-1.3-.5M163.6 46.8v-2.6h.8l.4 1.8.5-1.8h.8v2.6h-.5v-2l-.5 2h-.5l-.5-2v2z"></path> <path d="M26 27h-8v26.7c0 3.5 2.7 6.3 6.1 6.3h146.5v-3.3H31.5c-3.1 0-5.5-2.5-5.5-5.6V27zm3.2 21.6c0 2.7 2.1 4.8 4.7 4.8h136.7v-3.3h-137c-.7 0-1.2-.5-1.2-1.2V27h-3.2v21.6zm19.4-11.5l-.4-2.5-.3 2.5-.7 4.4h2.2l-.8-4.4zm1.4-6.8l3.8 16.5h-3.3l-.6-2.8h-3.2l-.6 2.8H43l3.7-16.5H50zM166.6 46.8h.5v-.5h-.5zM168.1 45.3h.8c.1 0 .2-.1.2-.1V45v-.2c-.1-.1-.1-.1-.2-.1-.1-.1-.2-.1-.4-.1h-.4v.7zm-.5 1.5v-2.6h1.1c.2 0 .4 0 .6.1.1 0 .2.1.3.2 0 .1.1.3.1.4 0 .2-.1.4-.2.5-.1.2-.3.2-.5.3.1 0 .2.1.3.2 0 .1.1.2.3.4l.3.5h-.6l-.4-.5c-.1-.2-.2-.4-.3-.4 0-.1-.1-.1-.1-.1-.1-.1-.2-.1-.3-.1h-.1v1.1h-.5zM170.2 46.8h.4v-.5h-.4z"></path></g></svg>